<svg id="Capa_1" enable-background="new 0 0 497 497" height="512" viewBox="0 0 497 497" width="512" xmlns="http://www.w3.org/2000/svg"><g><g><path d="m302.5 302.5-281-3.511c-8.284 0-19.745-2.865-19.745-11.149l-1.755-1.34v-271.5c0-8.284 6.716-15 15-15h272.5c8.284 0 15 6.716 15 15v28.75l-2.191 5.367z" fill="#e15f78"/></g><path d="m73.75 43.75c-16.569 0-30 13.431-30 30v202.75c0 5.523-4.477 10-10 10h-33.75v1c0 8.284 6.716 15 15 15h28.75 258.75v-16-242.75z" fill="#d1546b"/><path d="m375.75 375.75-299.016-1.569c-8.284 0-16.979-5.163-16.979-13.447l-1.005-.984v-286c0-8.284 6.716-15 15-15h287c8.284 0 15 6.716 15 15v30.75l-8.207 17.638z" fill="#ffe07d"/><path d="m134.5 104.5c-16.569 0-30 13.431-30 30v215.25c0 5.523-4.477 10-10 10h-35.75v1c0 8.284 6.716 15 15 15h30.75 271.25v-16-255.25z" fill="#ffd064"/><path d="m480.117 494.5-341.553-1.468c-8.284 0-15-6.716-15-15l-2.106-340.723c0-8.284 4.035-15.957 12.319-15.957l1.723-1.851h346.5c8.284 0 15 6.716 15 15v346.499l-.989.702c0 8.284-7.61 12.798-15.894 12.798z" fill="#f9f8f9"/><path d="m497 481v1c0 8.284-6.716 15-15 15h-347.5c-8.284 0-15-6.716-15-15v-347.5c0-8.284 6.716-15 15-15h1v341.5c0 11.046 8.954 20 20 20z" fill="#e8e8e8"/><path d="m455.032 460.223-292.809-1.617c-3.866 0-7-3.134-7-7l-1.681-288.234c0-3.866 3.134-7 7-7l5.788-1.384h290.844c3.866 0 7 3.134 7 7v285.382l-2.142 5.853c0 3.866-3.134 7-7 7z" fill="#857e87"/><path d="m464.174 447.37-.004 7c0 3.86-3.13 7-7 7h-297.84c-3.87 0-7-3.14-7-7v-292.38c0-3.866 3.134-7 7-7l7-.001v281.381c0 6.075 4.925 11 11 11z" fill="#6f6571"/><path d="m408.576 410.558h-114.692c-5.058 0-9.159-4.101-9.159-9.159v-23.109l6.903-10.875-6.903-80.794c0-5.058 4.101-9.159 9.159-9.159l31.786 2.442 8.37-2.442h74.536c5.058 0 9.159 4.101 9.159 9.159v114.778c0 5.058-4.101 9.159-9.159 9.159z" fill="#ffe07d"/><path d="m350.72 366.63c-3.58 7.19-10.81 11.66-18.85 11.66h-47.145l-.005-91.67c0-5.06 4.11-9.16 9.16-9.16l40.16.002c-2.925 9.107-7.55 17.451-13.49 24.686-1.169 1.424-1.21 3.461-.101 4.932l28.241 37.471c4.84 6.419 5.62 14.879 2.03 22.079z" fill="#ffd064"/><path d="m325.67 254.35c0 15.33-5.438 29.391-14.49 40.359 0 0-3.781 2.078-5.335 3.61-11.456 11.293-25.245 16.798-42.601 16.798-6.805 0-14.383 1.612-20.527-.37-12.735-4.109-23.71-12.134-31.508-22.657 28.888-.861 34.517-22.022 43.652-39.186 10.395-19.53 24.022-35.352 58.368-36.294 7.821 10.55 12.441 23.6 12.441 37.74z" fill="#ff9161"/><path d="m313.23 216.61c-64.53 1.77-40.26 73.64-102.02 75.48-7.83-10.55-12.45-23.6-12.45-37.74 0-35.05 28.41-63.45 63.46-63.45 20.91 0 39.45 10.11 51.01 25.71z" fill="#ffa95f"/><path d="m311.18 294.709c-11.63 14.08-29.26 23.091-48.96 23.091-6.81 0-13.362-1.063-19.502-3.053l24.932-33.087c4.02-5.33 10.15-8.39 16.82-8.39 6.68 0 12.81 3.06 16.82 8.39z" fill="#f4805d"/><path d="m277.233 288.88-47.399 62.893c-4.501 5.973-.24 14.52 7.239 14.52h94.798c7.479 0 11.74-8.547 7.239-14.52l-47.399-62.893c-3.627-4.812-10.851-4.812-14.478 0z" fill="#c3aff0"/><g><g><path d="m386.165 336.176c-4.143 0-7.5-3.358-7.5-7.5v-92.457c0-4.142 3.357-7.5 7.5-7.5s7.5 3.358 7.5 7.5v92.457c0 4.142-3.357 7.5-7.5 7.5z" fill="#e15f78"/></g><g><path d="m356.783 305.059c-4.143 0-7.5-3.358-7.5-7.5v-38.977c0-4.142 3.357-7.5 7.5-7.5s7.5 3.358 7.5 7.5v38.977c0 4.142-3.357 7.5-7.5 7.5z" fill="#e15f78"/></g></g><path d="m324.76 425.603h-54.386c-7.509 0-13.597-6.614-13.597-14.772 0-8.158 6.087-14.772 13.597-14.772h54.386c7.509 0 13.597 6.614 13.597 14.772 0 8.159-6.088 14.772-13.597 14.772z" fill="#bde4ff"/></g></svg>